<?xml version="1.0" standalone="no"?>
<!DOCTYPE svg PUBLIC "-//W3C//DTD SVG 20010904//EN"
 "http://www.w3.org/TR/2001/REC-SVG-20010904/DTD/svg10.dtd">
<svg version="1.0" xmlns="http://www.w3.org/2000/svg"
 width="458.000000pt" height="458.000000pt" viewBox="0 0 458.000000 458.000000"
 preserveAspectRatio="xMidYMid meet">

<g transform="translate(0.000000,458.000000) scale(0.100000,-0.100000)"
fill="#000000" stroke="none">
<path d="M1645 3522 c-99 -48 -141 -159 -96 -257 25 -55 71 -91 139 -111 31
-9 63 -21 70 -27 8 -6 30 -42 49 -81 27 -53 34 -78 30 -105 -4 -31 -224 -411
-313 -542 -33 -49 -61 -59 -154 -59 l-80 0 -65 60 c-44 39 -78 62 -101 66
-139 26 -253 -69 -242 -202 9 -104 88 -177 192 -177 62 0 101 19 151 72 51 54
80 64 170 59 64 -3 78 -7 99 -28 13 -14 72 -119 131 -235 59 -115 112 -214
116 -219 21 -24 8 -81 -32 -143 -48 -74 -72 -93 -114 -93 -80 0 -164 -52 -191
-117 -20 -48 -17 -127 6 -173 11 -22 39 -52 62 -67 35 -24 52 -28 108 -28 56
0 73 4 108 28 24 15 51 45 63 69 19 38 21 52 15 141 l-7 98 46 64 c25 35 50
67 56 71 34 21 103 20 376 -1 343 -26 327 -20 388 -138 l40 -77 -23 -62 c-12
-35 -22 -79 -22 -98 1 -48 31 -110 69 -143 156 -131 386 43 302 228 -24 54
-70 91 -136 111 -69 19 -87 35 -125 108 -50 97 -49 100 116 371 178 294 189
309 220 324 14 6 61 11 105 11 l80 0 58 -54 c64 -62 93 -76 158 -76 225 0 264
311 49 380 -31 10 -50 10 -94 0 -45 -10 -64 -21 -108 -65 -60 -61 -90 -71
-186 -62 -50 4 -66 11 -88 34 -44 45 -250 458 -250 500 0 26 12 52 45 99 53
74 61 79 136 88 66 8 107 31 145 81 51 68 44 181 -15 249 -57 65 -189 76 -258
19 -71 -57 -88 -115 -68 -241 8 -52 7 -54 -39 -121 -30 -44 -58 -74 -78 -82
-37 -15 -104 -14 -411 10 -271 21 -270 20 -324 111 -44 72 -50 111 -27 163 27
59 25 142 -5 190 -51 83 -163 118 -246 79z m789 -852 c68 -27 150 -98 194
-168 82 -129 82 -307 -2 -435 -89 -137 -219 -205 -375 -195 -105 7 -179 38
-251 104 -95 89 -140 188 -140 309 0 180 116 339 290 397 76 25 203 19 284
-12z"/>
<path d="M2203 2473 c-56 -19 -108 -80 -123 -144 -37 -155 112 -297 261 -248
103 35 167 146 140 246 -17 64 -51 106 -110 136 -61 30 -105 33 -168 10z"/>
</g>
</svg>
